<svg width="24" height="24" viewBox="0 0 24 24" fill="none" xmlns="http://www.w3.org/2000/svg">
<path d="M8.5 20C10.9853 20 13 17.9853 13 15.5C13 13.0147 10.9853 11 8.5 11C6.01472 11 4 13.0147 4 15.5C4 17.9853 6.01472 20 8.5 20Z" fill="black" fill-opacity="0.15"/>
<path d="M18 6L20 8L17 11L15 9M11.6915 12.3086L21.0001 3M13 15.5C13 17.9833 10.9851 20 8.49878 20C6.01485 20 4 17.9833 4 15.5C4 13.0167 6.01485 11 8.49878 11C10.9851 11 13 13.0167 13 15.5Z" stroke="black" stroke-width="2" stroke-linecap="round" stroke-linejoin="round"/>
</svg>
